/* XPM */
static char *_da46a8a798548eaac3dba49966ca853j4TkzwtuA94i4Jkp[] = {
/* columns rows colors chars-per-pixel */
"32 32 41 1 ",
"  c #04193F",
". c #4D9E46",
"X c #4EA247",
"o c #4EA547",
"O c #4FA348",
"+ c #4EA648",
"@ c #50A547",
"# c #54A646",
"$ c #57A847",
"% c #58A945",
"& c #58A846",
"* c #5EAB47",
"= c #50A449",
"- c #50A648",
"; c #54A748",
": c #5AAB49",
"> c #5CAB48",
", c #5EAD49",
"< c #63AE46",
"1 c #67AF46",
"2 c #62AD48",
"3 c #66AF48",
"4 c #68B045",
"5 c #6FB345",
"6 c #67B14A",
"7 c #6DB348",
"8 c #77B743",
"9 c #70B445",
"0 c #79B642",
"q c #75B847",
"w c #7AB945",
"e c #78B947",
"r c #7CBB44",
"t c #70B448",
"y c #82BD42",
"u c #84BF45",
"i c #8FC641",
"p c #780BF7",
"a c #D840FB",
"s c #F489F6",
"d c #FCFEFE",
/* pixels */
"oo+++$%o=Xo+oooXooooOXo+oo++++Xo",
"-+---44-X=o+-+<:+++++Oo+@,,+++++",
"+2<++X---+-++-1:-++--=--%0w:--+-",
"-,,--O-----+--@---+---+-%36%-X+0",
"-+------OX  .----  -u-+----++=@*",
"--:;----2 ss =:- pp >w--------+-",
"--9*-+-- ssss r ppp @---+-@+&1*+",
"-+-+-OO- sssss  pppp -+-%1oX*r1-",
"-----==-- sssaaaappp ---%3-+---=",
"-+----+-- asssssaaapp ---+----+-",
"u;---9i2 asssssssaaap X@---.-99-",
"58-+-++- sssssddddddpp ;+---<qw,",
"8++---- assssddddddddp :--------",
"-++O--- ssssdd   ddd  p ---+--O=",
"-+--=-+ ssssd  dd d  d  .-----O+",
"y------ ssssd  dd d  d  =--@=--+",
"---u--O ssssd     d     --01+-+-",
"-=---+O assssd   ddd  p ---+++-1",
"-+-+-+-- ssssddddddddd -----+-+8",
"=------- assssaddddddp 0+----=+-",
"-+w2-+-u+ sssssaaappp -*--=+=---",
"-75u----u ssssssdddp @--+---O-%-",
"++++-==- sssspsddddpp ---&:+-=w>",
"+OO+-+-- sssspsdddddp +-:80:--+-",
"-+-->9+ sssspaddddddpp -&8w#--+-",
"-+-+;>- sssspaddddddpp --:%-+-+.",
"2r---O- ssspasddddddpp --=-+=+-+",
"---+-+=- ppaassddddp  --+---#,--",
"+O---=--- aasssaaapp =o=7--->t+-",
"O=---<3-- ssss  pppp =-=9---.@+-",
"----O2>-- ssss  ppp --=-=---=---",
"=+++O---- sss + ppp ----+-+-@---"
};
