/* XPM */
static char *Tree_21681216825[] = {
/* columns rows colors chars-per-pixel */
"32 32 43 1 ",
"  c black",
". c #3E2731",
"X c #733E39",
"o c #D77643",
"O c #3E8948",
"+ c #4D9E46",
"@ c #4EA247",
"# c #4EA547",
"$ c #4FA348",
"% c #4EA648",
"& c #50A547",
"* c #54A646",
"= c #57A847",
"- c #58A945",
"; c #58A846",
": c #5EAB47",
"> c #50A449",
", c #50A648",
"< c #54A748",
"1 c #5AAB49",
"2 c #5CAB48",
"3 c #5EAD49",
"4 c #63AE46",
"5 c #67AF46",
"6 c #62AD48",
"7 c #66AF48",
"8 c #68B045",
"9 c #6FB345",
"0 c #67B14A",
"q c #6DB348",
"w c #77B743",
"e c #70B445",
"r c #79B642",
"t c #75B847",
"y c #7ABA43",
"u c #7AB945",
"i c #78B947",
"p c #7CBB44",
"a c #70B448",
"s c #63C74D",
"d c #82BD42",
"f c #84BF45",
"g c #8FC641",
/* pixels */
"##%%%=-#$$#%###@####@@#%##%%####",
",%,,,88,$$%%%%41%%%%%>#,&33%%%%%",
"%64%%@,,,%,%%,51,%%,,>,,-ru1,,%,",
",33,,$,,,,,,,,&,,,%,,,%,-70=,@%r",
",%,,,,,,%%,,+,,,,%,,f,%,,,,%%>&:",
",,1<,,,,6u,,%,1,,,,%2u,,,,,,,,%,",
",,e:,%,,,%,,,2        ,,%,&#;5:%",
",%,%,$$,,%,    OOOOOO   -4#@6p4,",
",,,,,,,,,%  OOOOssssOOO -0,%,,,,",
",%,,,,%,   OOsssssssssO   ,,,,%,",
"f<,,,eg6 OOOssssssssssOO+  +,ee,",
"9w,%,%%  OssssssssssssssOO %4tu3",
"w%%,,,, OOsssssssssssssssO  ,,,,",
",%%$,,, OssssssssssssssssOO ,,$>",
",%,,>,% OsssssssssssssssssO ,,$%",
"d,,,,,, OsssssssssssssssssO >,,%",
",,,f,,, OsssssssssssssssssO %,%,",
",>,,,%$ OssssssssssssssssOO ,,,5",
",%,%,%, OOssssssssssssssOO  %,%r",
">,,,,,,  OOOsssssssssssOO  ,,,%,",
",%i6,%,f   OOOOOOOsssOOO  >%,,,,",
",qef,,,,f,  O    OOOOO   ,,,%,-,",
"%%%%,,,,,,,   .        ,,-1%,>u2",
",$$%,%,,,,,,  X... $-4,,1wr1,,%%",
",%,,2e%,%,,%- XXX  ,,4,,-wu<,,%,",
",%,%<2,,&&,,% oXX ,,,,%,,1-,%,%+",
"6p,,,$,,2y,%, oXX &,>,%,,>,%,,,%",
",,,%,%$>,,,,% ooX e,,,,,%,,,<2,,",
"%$,,,>,,,,,,  XoX  ,%,%>q,,,2a%,",
">>,,,47,,,,  XXoXX  $,,>e,,,+,%,",
",,,,$62,,,  X .XX .  ,>,>,,,>,,,",
">%%%$,,,,             ,,%,%,,,,,"
};
